#!OML:ASF H:\BabyWalks\Project 1\Capture day 1\Session 1\baby.ASF
:FULLY-SPECIFIED
:DEGREES
289
root 7.0449 17.8807 -18.9272 15.3063 51.0674 8.04408
lowerback 23.0608 -4.57354 -5.1218
upperback 4.27576 -7.0875 -1.22301
thorax -7.61179 -3.20719 3.57469
lowerneck -5.79346 -1.43297 2.8575
upperneck -0.566511 -2.08822 -0.239995
head 0.753875 -1.04678 -0.596379
rclavicle 2.22639e-014 1.59028e-014
rhumerus -67.9927 13.2837 -86.3079
rradius 47.6333
rwrist -3.51575
rhand -5.8627 -16.9611
rfingers 7.12502
rthumb 19.9643 -45.9556
lclavicle 2.22639e-014 1.59028e-014
lhumerus -32.2342 -10.5213 63.8697
lradius 82.7228
lwrist -4.05589
lhand -9.34856 6.02267
lfingers 7.12502
lthumb 16.6109 35.3318
rfemur -34.1054 2.40803 17.365
rtibia 34.7509
rfoot -12.6206 -12.1354
rtoes 8.8549
lfemur 0.879187 6.1498 -14.579
ltibia 13.2227
lfoot -14.7301 -5.1875
ltoes -21.2978
290
root 7.13559 17.8785 -18.8101 15.5528 51.0068 8.22269
lowerback 22.9026 -4.62409 -4.94311
upperback 4.24028 -7.08735 -0.998923
thorax -7.56022 -3.2139 3.70505
lowerneck -5.77169 -1.4019 3.11418
upperneck -0.708035 -2.05386 -0.944192
head 0.699781 -1.04053 -0.856199
rclavicle 3.26007e-014 -2.66371e-014
rhumerus -68.082 13.0301 -85.6253
rradius 47.2535
rwrist -3.87683
rhand -5.57193 -16.8596
rfingers 7.12502
rthumb 20.2438 -45.8247
lclavicle 3.26007e-014 -2.66371e-014
lhumerus -32.7001 -10.6567 64.3003
lradius 83.2564
lwrist -3.77411
lhand -9.48718 5.86124
lfingers 7.12502
lthumb 16.4774 35.1815
rfemur -33.8125 1.67777 17.6346
rtibia 34.8767
rfoot -12.2648 -13.5293
rtoes 8.90763
lfemur 1.09638 6.15253 -14.4548
ltibia 13.4729
lfoot -14.421 -5.62943
ltoes -22.282
291
root 7.22449 17.8736 -18.6912 15.7287 50.9478 8.31367
lowerback 22.7621 -4.65215 -4.72848
upperback 4.19966 -7.04893 -0.745847
thorax -7.52745 -3.2019 3.83849
lowerneck -5.74119 -1.38013 3.38537
upperneck -0.867545 -2.03369 -1.67174
head 0.638796 -1.04108 -1.12843
rclavicle 1.145e-013 -5.1684e-014
rhumerus -68.0942 12.7266 -84.9111
rradius 46.8069
rwrist -4.08871
rhand -5.31955 -16.7673
rfingers 7.12502
rthumb 20.4864 -45.7064
lclavicle 1.145e-013 -5.1684e-014
lhumerus -33.2493 -10.7223 64.8438
lradius 83.6253
lwrist -3.45948
lhand -9.54218 5.75134
lfingers 7.12502
lthumb 16.4245 35.076
rfemur -33.5177 1.00229 17.9541
rtibia 35.0604
rfoot -12.0654 -14.3888
rtoes 8.74339
lfemur 1.02549 6.20093 -14.2522
ltibia 14.298
lfoot -14.2538 -6.12172
ltoes -23.1821
292
root 7.31151 17.8671 -18.5709 15.8198 50.8878 8.29207
lowerback 22.6397 -4.65998 -4.46542
upperback 4.15646 -6.97133 -0.457558
thorax -7.51172 -3.17104 3.97463
lowerneck -5.70663 -1.36978 3.64776
upperneck -1.05216 -2.02967 -2.40825
head 0.569095 -1.04905 -1.40509
rclavicle 9.14409e-015 -3.97569e-015
rhumerus -68.0127 12.3818 -84.1594
rradius 46.2872
rwrist -4.13567
rhand -5.10884 -16.675
rfingers 7.12502
rthumb 20.6888 -45.5922
lclavicle 9.14409e-015 -3.97569e-015
lhumerus -33.8741 -10.7182 65.5057
lradius 83.8177
lwrist -3.13228
lhand -9.55012 5.72308
lfingers 7.12502
lthumb 16.4168 35.0484
rfemur -33.2344 0.405333 18.3312
rtibia 35.2706
rfoot -12.0516 -14.7365
rtoes 8.43923
lfemur 0.66367 6.28561 -13.9575
ltibia 15.69
lfoot -14.1948 -6.65292
ltoes -24.0689
293
root 7.39703 17.8597 -18.4496 15.7918 50.8238 8.11665
lowerback 22.5295 -4.64794 -4.11743
upperback 4.11865 -6.84595 -0.139314
thorax -7.50708 -3.11833 4.08427
lowerneck -5.67363 -1.37042 3.90967
upperneck -1.25291 -2.0424 -3.1403
head 0.493857 -1.06447 -1.68374
rclavicle -1.6678e-013 1.68967e-014
rhumerus -67.8292 11.9757 -83.3774
rradius 45.6897
rwrist -4.0074
rhand -4.94742 -16.5732
rfingers 7.12502
rthumb 20.8439 -45.4735
lclavicle -1.6678e-013 1.68967e-014
lhumerus -34.5604 -10.6784 66.2699
lradius 83.8297
lwrist -2.82704
lhand -9.5168 5.79356
lfingers 7.12502
lthumb 16.4489 35.1162
rfemur -32.9621 -0.0835945 18.7855
rtibia 35.4804
rfoot -12.2078 -14.68
rtoes 8.11652
lfemur 0.0420536 6.392 -13.5455
ltibia 17.5816
lfoot -14.1675 -7.21426
ltoes -24.9561
294
root 7.48128 17.8518 -18.3279 15.635 50.7495 7.77101
lowerback 22.4312 -4.61739 -3.67554
upperback 4.0872 -6.67227 0.209483
thorax -7.51295 -3.04363 4.16268
lowerneck -5.65187 -1.37766 4.15364
upperneck -1.45906 -2.06543 -3.84547
head 0.41816 -1.08384 -1.95415
rclavicle -6.33129e-014 -2.54444e-014
rhumerus -67.5334 11.516 -82.5666
rradius 45.006
rwrist -3.69528
rhand -4.83187 -16.4589
rfingers 7.12502
rthumb 20.9549 -45.3469
lclavicle -6.33129e-014 -2.54444e-014
lhumerus -35.3038 -10.6152 67.1311
lradius 83.6531
lwrist -2.59953
lhand -9.48285 5.96593
lfingers 7.12502
lthumb 16.4816 35.2859
rfemur -32.7017 -0.4495 19.324
rtibia 35.6717
rfoot -12.4988 -14.3646
rtoes 7.88195
lfemur -0.795625 6.50879 -13.009
ltibia 19.8735
lfoot -14.1149 -7.79591
ltoes -25.8726
295
root 7.56482 17.8433 -18.206 15.349 50.6532 7.25462
lowerback 22.3327 -4.5688 -3.13391
upperback 4.07144 -6.44956 0.578589
thorax -7.51407 -2.94739 4.19325
lowerneck -5.64776 -1.39325 4.37908
upperneck -1.66802 -2.10133 -4.50493
head 0.343699 -1.10846 -2.20982
rclavicle 1.03716e-013 -1.42131e-014
rhumerus -67.1102 10.9989 -81.7373
rradius 44.2288
rwrist -3.20098
rhand -4.76486 -16.3213
rfingers 7.12502
rthumb 21.0193 -45.2023
lclavicle 1.03716e-013 -1.42131e-014
lhumerus -36.0922 -10.5433 68.068
lradius 83.2884
lwrist -2.50352
lhand -9.46747 6.22226
lfingers 7.12502
lthumb 16.4964 35.541
rfemur -32.4435 -0.694502 19.948
rtibia 35.8284
rfoot -12.8674 -13.9248
rtoes 7.71
lfemur -1.80439 6.61404 -12.3552
ltibia 22.47
lfoot -13.9656 -8.37852
ltoes -26.7588
